<?xml version="1.0" standalone="no"?>
<!DOCTYPE svg PUBLIC "-//W3C//DTD SVG 20010904//EN"
 "http://www.w3.org/TR/2001/REC-SVG-20010904/DTD/svg10.dtd">
<svg version="1.0" xmlns="http://www.w3.org/2000/svg"
 width="700.000000pt" height="700.000000pt" viewBox="0 0 700.000000 700.000000"
 preserveAspectRatio="xMidYMid meet">
<metadata>
Created by potrace 1.14, written by Peter Selinger 2001-2017
</metadata>
<g transform="translate(0.000000,700.000000) scale(0.100000,-0.100000)"
fill="#000000" stroke="none">
<path d="M5160 5923 c-955 -93 -1816 -644 -2308 -1474 l-62 -106 -58 -12
c-103 -23 -374 -118 -507 -178 -350 -159 -652 -370 -922 -646 -131 -133 -139
-145 -133 -202 3 -31 40 -64 84 -76 254 -66 550 -203 812 -376 149 -98 176
-98 241 -2 60 87 148 146 252 168 30 6 55 10 57 9 1 -2 -31 -46 -72 -98 -163
-207 -344 -506 -344 -568 0 -24 9 -42 30 -64 27 -27 36 -30 71 -25 22 3 46 10
53 16 8 6 41 60 74 120 133 240 286 443 482 641 74 75 173 167 220 204 109 86
338 239 458 305 l93 50 -42 -77 c-80 -146 -227 -364 -309 -456 -15 -17 -61
-70 -103 -117 l-76 -87 -45 5 c-40 5 -48 2 -77 -26 -30 -31 -31 -34 -24 -84 5
-29 9 -92 9 -142 0 -76 -4 -99 -26 -147 -31 -67 -95 -140 -153 -174 -43 -24
-65 -58 -65 -96 0 -12 33 -72 74 -132 154 -232 263 -453 346 -709 53 -161 76
-197 126 -197 45 0 77 26 229 182 381 389 640 848 780 1381 16 58 23 71 49 84
57 29 240 146 314 201 296 218 540 475 747 786 387 582 553 1263 470 1920 -14
108 -29 147 -63 165 -54 29 -507 51 -682 34z m-285 -868 c71 -34 142 -108 179
-185 28 -59 31 -74 31 -160 0 -82 -4 -103 -27 -153 -35 -75 -113 -156 -185
-193 -53 -26 -67 -29 -163 -29 -99 0 -109 2 -172 33 -137 67 -212 187 -212
342 0 110 27 179 96 256 115 125 303 162 453 89z m-2211 -972 c-39 -88 -135
-387 -158 -493 -14 -63 -33 -171 -42 -240 -9 -69 -18 -134 -20 -145 -3 -13
-28 -31 -72 -52 -37 -18 -95 -57 -130 -88 l-62 -56 -97 61 c-123 78 -406 217
-541 266 l-103 38 58 59 c201 205 537 429 853 568 57 25 311 117 328 119 1 0
-5 -17 -14 -37z m1446 -1407 c0 -3 -21 -64 -46 -138 -128 -369 -349 -733 -613
-1011 -41 -43 -77 -74 -81 -70 -4 4 -24 53 -45 108 -53 143 -172 382 -252 511
l-70 111 58 61 c34 36 72 91 91 130 l33 69 105 12 c227 26 499 94 696 174 113
46 124 50 124 43z"/>
<path d="M1878 2661 c-147 -74 -242 -145 -374 -276 -220 -219 -351 -462 -411
-761 -12 -63 -17 -135 -17 -249 0 -167 10 -230 42 -258 32 -29 126 -40 302
-34 228 7 377 45 580 147 281 141 533 397 669 679 23 47 41 93 41 103 0 31
-27 73 -55 86 -64 29 -104 4 -154 -101 -22 -45 -63 -118 -92 -162 -64 -98
-247 -282 -346 -348 -216 -143 -450 -217 -689 -217 l-103 0 -7 45 c-14 98 17
320 63 450 117 326 347 582 670 744 45 22 87 50 93 60 19 36 12 86 -16 115
-41 40 -83 35 -196 -23z"/>
</g>
</svg>
